<?xml version="1.0" encoding="utf-8"?>
<!-- Generator: Adobe Illustrator 17.0.0, SVG Export Plug-In . SVG Version: 6.00 Build 0)  -->
<!DOCTYPE svg PUBLIC "-//W3C//DTD SVG 1.1//EN" "http://www.w3.org/Graphics/SVG/1.1/DTD/svg11.dtd" [
	<!ENTITY st0 "fill:#383838;">
]>
<svg version="1.1" id="Слой_1" xmlns="http://www.w3.org/2000/svg" xmlns:xlink="http://www.w3.org/1999/xlink" x="0px" y="0px"
	 width="54.9983px" height="53.0108px" viewBox="0 0 54.9983 53.0108" style="enable-background:new 0 0 54.9983 53.0108;"
	 xml:space="preserve">
<path style="&st0;" d="M45.0573,24.0184c0.5528,0,1.0008,0.4454,1.0008,0.9947c0,0.5493-0.448,0.9943-1.0008,0.9943
	c-0.5527,0-1.0008-0.445-1.0008-0.9943C44.0565,24.4638,44.5046,24.0184,45.0573,24.0184z"/>
<path style="&st0;" d="M9.0282,24.0184c0.5528,0,1.0008,0.4454,1.0008,0.9947c0,0.5493-0.448,0.9943-1.0008,0.9943
	c-0.5527,0-1.0008-0.445-1.0008-0.9943C8.0274,24.4638,8.4755,24.0184,9.0282,24.0184z"/>
<path style="&st0;" d="M12.0307,27.0021c0.5527,0,1.0008,0.4453,1.0008,0.9945c0,0.5494-0.4481,0.9946-1.0008,0.9946
	c-0.5528,0-1.0009-0.4452-1.0009-0.9946C11.0298,27.4474,11.4779,27.0021,12.0307,27.0021z"/>
<path style="&st0;" d="M18.0355,27.0021c0.5528,0,1.0008,0.4453,1.0008,0.9945c0,0.5494-0.448,0.9946-1.0008,0.9946
	c-0.5527,0-1.0008-0.4452-1.0008-0.9946C17.0347,27.4474,17.4828,27.0021,18.0355,27.0021z"/>
<path style="&st0;" d="M15.033,29.9856c0.5528,0,1.0008,0.4454,1.0008,0.9947c0,0.5493-0.448,0.9947-1.0008,0.9947
	c-0.5527,0-1.0007-0.4454-1.0007-0.9947C14.0323,30.431,14.4803,29.9856,15.033,29.9856z"/>
<path style="&st0;" d="M21.0379,29.9856c0.5527,0,1.0009,0.4454,1.0009,0.9947c0,0.5493-0.4482,0.9947-1.0009,0.9947
	c-0.5528,0-1.0008-0.4454-1.0008-0.9947C20.0371,30.431,20.4851,29.9856,21.0379,29.9856z"/>
<path style="&st0;" d="M24.0403,32.96951c0.5528,0,1.0008,0.4452,1.0008,0.9945c0,0.5492-0.448,0.9946-1.0008,0.9946
	c-0.5527,0-1.0007-0.4454-1.0007-0.9946C23.0396,33.4147,23.4876,32.96951,24.0403,32.96951z"/>
<path style="&st0;" d="M30.0452,32.96951c0.5527,0,1.0008,0.4452,1.0008,0.9945c0,0.5492-0.4481,0.9946-1.0008,0.9946
	c-0.5528,0-1.0008-0.4454-1.0008-0.9946C29.0444,33.4147,29.4924,32.96951,30.0452,32.96951z"/>
<path style="&st0;" d="M33.0476,29.9856c0.5528,0,1.0008,0.4454,1.0008,0.9947c0,0.5493-0.448,0.9947-1.0008,0.9947
	c-0.5527,0-1.0009-0.4454-1.0009-0.9947C32.0467,30.431,32.4949,29.9856,33.0476,29.9856z"/>
<path style="&st0;" d="M27.0427,35.9531c0.5528,0,1.0009,0.4453,1.0009,0.9945c0,0.5493-0.4481,0.9947-1.0009,0.9947
	c-0.5527,0-1.0008-0.4454-1.0008-0.9947C26.0419,36.3984,26.49,35.9531,27.0427,35.9531z"/>
<path style="&st0;" d="M36.05,27.0021c0.5528,0,1.0008,0.4453,1.0008,0.9945c0,0.5494-0.448,0.9946-1.0008,0.9946
	c-0.5527,0-1.0008-0.4452-1.0008-0.9946C35.0492,27.4474,35.4973,27.0021,36.05,27.0021z"/>
<path style="&st0;" d="M42.0548,27.0021c0.5528,0,1.0009,0.4453,1.0009,0.9945c0,0.5494-0.4481,0.9946-1.0009,0.9946
	c-0.5527,0-1.0008-0.4452-1.0008-0.9946C41.054,27.4474,41.5021,27.0021,42.0548,27.0021z"/>
<path style="&st0;" d="M39.0525,29.9856c0.5527,0,1.0008,0.4454,1.0008,0.9947c0,0.5493-0.4481,0.9947-1.0008,0.9947
	c-0.5528,0-1.0008-0.4454-1.0008-0.9947C38.0517,30.431,38.4997,29.9856,39.0525,29.9856z"/>
<path style="&st0;" d="M45.5957,31.7958l9.4016-5.3378l-9.6637-5.4532l9.6637-5.4868L27.4991,0L0,15.518l9.6637,5.4868L0,26.458
	l9.6637,5.487L0,37.39811l27.4991,15.6127l27.4992-15.6127l-9.6638-5.4531l0.071-0.0407
	C45.4756,31.8783,45.5337,31.8365,45.5957,31.7958z M27.4991,2.2863l23.455,13.2366l-7.6432,4.3403l0,0L27.5001,28.84
	L4.0442,15.5229L27.4991,2.2863z M11.1379,22.46c0.1622,0.3311,0.4974,0.5638,0.8928,0.5638c0.2702,0,0.5123-0.1083,0.6925-0.2813
	l2.2638,1.2848c-0.5304,0.0248-0.9547,0.4525-0.9547,0.9858c0,0.549,0.4483,0.9943,1.0007,0.9943
	c0.5526,0,1.0008-0.4453,1.0008-0.9943c0-0.1722-0.055-0.3254-0.132-0.4665l10.3383,5.8697
	c-0.1161,0.1622-0.1982,0.3502-0.1982,0.564c0,0.5491,0.4484,0.9947,1.0008,0.9947c0.5525,0,1.0009-0.4456,1.0009-0.9947
	c0-0.0506-0.0211-0.0936-0.0291-0.1422l10.0602-5.7117c0.059,0.4932,0.4653,0.8802,0.9778,0.8802
	c0.5524,0,1.0008-0.4455,1.0008-0.9946c0-0.3233-0.1652-0.5977-0.4064-0.7788l2.2038-1.2511
	c0.0681,0.015,0.1322,0.0409,0.2041,0.0409c0.4444,0,0.8078-0.2926,0.9388-0.6904l0.3203-0.182l7.6402,4.3115l-1.9846,1.1268
	c-0.1572-0.3452-0.5035-0.5878-0.9088-0.5878c-0.5524,0-1.0008,0.4455-1.0008,0.9945c0,0.2149,0.0831,0.4028,0.1991,0.565
	l-3.9481,2.2417l0,0l-6.3932,3.6301c0.078-0.1412,0.1341-0.2962,0.1341-0.4695c0-0.5488-0.4484-0.9944-1.0008-0.9944
	s-1.0008,0.4456-1.0008,0.9944c0,0.5341,0.4263,0.9618,0.9578,0.9858l-2.2648,1.2859c-0.1802-0.1731-0.4234-0.2825-0.6946-0.2825
	c-0.5524,0-1.0008,0.4456-1.0008,0.9947c0,0.0793,0.028,0.1499,0.046,0.2245l-4.5937,2.6079l-5.5214-3.1349
	c-0.1301-0.3987-0.4944-0.6922-0.9398-0.6922c-0.073,0-0.1381,0.0269-0.2061,0.0418l-2.2029-1.2501
	c0.2413-0.1821,0.4074-0.4557,0.4074-0.7798c0-0.5489-0.4483-0.9945-1.0009-0.9945c-0.5123,0-0.9196,0.3888-0.9778,0.8821
	L6.9965,28.1398c0.007-0.0487,0.0291-0.0925,0.0291-0.1432c0-0.5489-0.4484-0.9945-1.0008-0.9945
	c-0.2392,0-0.4494,0.0945-0.6215,0.2337L4.0432,26.464L11.1379,22.46z M50.9531,37.4032L27.4982,50.7203L4.0442,37.4032
	l7.6392-4.3114l15.8157,8.9788l15.8148-8.9788L50.9531,37.4032z"/>
</svg>
