<?xml version="1.0" encoding="utf-8"?>
<!-- Generator: Adobe Illustrator 17.0.0, SVG Export Plug-In . SVG Version: 6.00 Build 0)  -->
<!DOCTYPE svg PUBLIC "-//W3C//DTD SVG 1.1//EN" "http://www.w3.org/Graphics/SVG/1.1/DTD/svg11.dtd" [
	<!ENTITY st0 "fill:#F6CC02;">
]>
<svg version="1.1" id="Слой_1" xmlns="http://www.w3.org/2000/svg" xmlns:xlink="http://www.w3.org/1999/xlink" x="0px" y="0px"
	 width="13.3145px" height="12.9985px" viewBox="0 0 13.3145 12.9985" style="enable-background:new 0 0 13.3145 12.9985;"
	 xml:space="preserve">
<path style="&st0;" d="M13.3145,5.0368c0-0.2017-0.1492-0.3273-0.4482-0.3768L8.8497,4.0625L7.0493,0.3358
	C6.9481,0.1115,6.8173,0,6.6573,0c-0.16,0-0.2907,0.1115-0.3921,0.3358L4.4648,4.0625L0.448,4.66C0.1494,4.7095,0,4.8351,0,5.0368
	c0,0.115,0.0666,0.2463,0.2001,0.3934l2.9125,2.8994l-0.688,4.0954c-0.0108,0.0766-0.0161,0.1311-0.0161,0.1641
	c0,0.1142,0.028,0.2112,0.084,0.2904s0.14,0.119,0.252,0.119c0.0961,0,0.2027-0.0329,0.3201-0.0985l3.5926-1.9331L10.25,12.9
	c0.1122,0.0656,0.2188,0.0985,0.32,0.0985c0.107,0,0.1883-0.0395,0.2442-0.119c0.056-0.0792,0.0839-0.1762,0.0839-0.2904
	c0-0.071-0.0026-0.1259-0.008-0.1641l-0.6883-4.0954l2.9046-2.8994C13.2453,5.2885,13.3145,5.1576,13.3145,5.0368z"/>
<g>
</g>
<g>
</g>
<g>
</g>
<g>
</g>
<g>
</g>
<g>
</g>
<g>
</g>
<g>
</g>
<g>
</g>
<g>
</g>
<g>
</g>
<g>
</g>
<g>
</g>
<g>
</g>
<g>
</g>
</svg>
