<?xml version="1.0" encoding="utf-8"?>
<!-- Generator: Adobe Illustrator 17.0.0, SVG Export Plug-In . SVG Version: 6.00 Build 0)  -->
<!DOCTYPE svg PUBLIC "-//W3C//DTD SVG 1.1//EN" "http://www.w3.org/Graphics/SVG/1.1/DTD/svg11.dtd" [
	<!ENTITY st0 "fill:#010202;">
]>
<svg version="1.1" id="Слой_1" xmlns="http://www.w3.org/2000/svg" xmlns:xlink="http://www.w3.org/1999/xlink" x="0px" y="0px"
	 width="48.99977px" height="59.0002px" viewBox="0 0 48.99977 59.0002" style="enable-background:new 0 0 48.99977 59.0002;"
	 xml:space="preserve">
<path style="&st0;" d="M21.86293,41.8897c-0.5079,0-0.9195,0.4153-0.9195,0.9276v3.1336c0,0.5121,0.4116,0.9274,0.9195,0.9274
	s0.9196-0.4153,0.9196-0.9274v-3.1336C22.78253,42.3049,22.37083,41.8897,21.86293,41.8897z"/>
<path style="&st0;" d="M26.99133,45.9302c-0.5079,0-0.9196,0.4152-0.9196,0.9277v5.1949c0,0.5122,0.4117,0.9277,0.9196,0.9277
	c0.5079,0,0.9196-0.4155,0.9196-0.9277v-5.1949C27.91093,46.3454,27.49923,45.9302,26.99133,45.9302z"/>
<path style="&st0;" d="M48.99073,57.205c-0.4358-4.1428-3.8829-7.267-8.0182-7.267h-2.8661
	c-1.6446-1.3863-3.6428-2.2179-5.7819-2.4035v-7.7401h2.158c6.8819,0,12.4807-5.6478,12.4807-12.5899
	c0-1.6219-0.2998-3.1948-0.8922-4.6825c1.1483-1.9125,1.7528-4.0961,1.7528-6.3479c0-6.767-5.4577-12.2723-12.166-12.2723
	c-0.66,0-1.3206,0.0542-1.9706,0.1609C31.37833,1.4741,28.11293,0,24.64393,0s-6.7345,1.4741-9.0433,4.0632
	c-0.6503-0.107-1.3112-0.161-1.9715-0.161c-6.7082,0-12.166,5.5052-12.166,12.272c0,2.2519,0.6046,4.4355,1.7529,6.3479
	c-0.5923,1.488-0.8923,3.0607-0.8923,4.6827c0,6.9419,5.5988,12.5899,12.4808,12.5899c0.7316,0,1.4518-0.0635,2.158-0.1874v10.8706
	c-1.3998-0.8866-3.0198-1.3636-4.7078-1.3636c-2.6457,0-5.1723,1.2105-6.8517,3.2606c-2.6776,0.089-4.9241,2.0498-5.3796,4.7281
	c-0.0806,0.4744,0.0489,0.9571,0.3557,1.3241c0.3043,0.3641,0.75,0.5731,1.2221,0.5731h45.7972
	c0.4525,0,0.8857-0.1948,1.1883-0.5341C48.89183,58.1239,49.03913,57.6645,48.99073,57.205z M14.80453,37.9391
	c-5.8677,0-10.6415-4.8155-10.6415-10.7343c0-1.5286,0.312-3.005,0.9271-4.3883c0.1291-0.2904,0.1017-0.6272-0.0727-0.8923
	c-1.1218-1.7062-1.7149-3.6946-1.7149-5.7498c0-5.7438,4.6326-10.4169,10.3267-10.4169c0.7176,0,1.4356,0.075,2.1342,0.223
	c0.335,0.0708,0.682-0.0519,0.8994-0.3186c1.9716-2.4191,4.8806-3.8065,7.9811-3.8065s6.0093,1.3872,7.9809,3.8062
	c0.2176,0.2668,0.5642,0.3897,0.8994,0.3188c0.6984-0.1479,1.4162-0.2229,2.1335-0.2229c5.6941,0,10.3268,4.673,10.3268,10.4169
	c0,2.0554-0.593,4.0436-1.7148,5.7498c-0.1743,0.2651-0.2018,0.602-0.0726,0.8923c0.6151,1.3833,0.9269,2.8595,0.9269,4.3883
	c0,5.9188-4.7738,10.7343-10.6414,10.7343c-1.6541,0-3.2396-0.3728-4.7125-1.1078c-0.1277-0.0638-0.2676-0.0963-0.4079-0.0963
	c-0.0862,0-0.1726,0.0123-0.2568,0.0369c-1.4449,0.4238-2.9461,0.6388-4.4618,0.6388c-1.5158,0-3.017-0.215-4.462-0.6388
	c-0.2211-0.0647-0.4582-0.0436-0.6646,0.0593C18.04413,37.5663,16.45843,37.9391,14.80453,37.9391z M1.89243,57.1446
	c0.416-1.7064,1.9308-2.9177,3.7007-2.9177c0.069,0,0.1376,0.0022,0.2058,0.0056c0.3077,0.0172,0.605-0.1242,0.7886-0.3751
	c1.3242-1.8084,3.4428-2.888,5.667-2.888c1.8485,0,3.5954,0.7185,4.9192,2.0229c0.2206,0.2174,0.5346,0.3086,0.8362,0.2434
	c0.3424-0.0745,0.6918-0.1121,1.0384-0.1121c2.3908,0,4.3876,1.7339,4.8191,4.0208h-21.975V57.1446z M30.48533,57.1446h-4.7564
	c-0.4501-3.3141-3.2734-5.8762-6.6805-5.8762c-0.0821,0-0.1644,0.0018-0.2467,0.005V39.1351
	c0.4087-0.14,0.8115-0.3013,1.2076-0.4851c1.5063,0.409,3.0633,0.6161,4.6342,0.6161c1.5708,0,3.1277-0.2071,4.6341-0.6161
	c0.396,0.1839,0.7989,0.3453,1.2077,0.4853V57.1446L30.48533,57.1446z M32.32453,57.1446v-7.7469
	c2.0213,0.2137,3.8824,1.1291,5.315,2.633c0.2602,0.2731,0.6589,0.3591,1.0071,0.2175c0.742-0.3018,1.5244-0.4548,2.326-0.4548
	c3.1062,0,5.7096,2.2827,6.1572,5.3512H32.32453L32.32453,57.1446z"/>
</svg>
