<svg xmlns="http://www.w3.org/2000/svg" width="54.998" height="53.011"><path d="M45.057 24.018a.998.998 0 0 1 1.001.995c0 .55-.448.994-1 .994a.998.998 0 0 1-1.002-.994c0-.55.449-.995 1.001-.995zm-36.029 0a.998.998 0 0 1 1.001.995c0 .55-.448.994-1 .994a.998.998 0 0 1-1.002-.994c0-.55.449-.995 1.001-.995zm3.002 2.984a.998.998 0 0 1 1.002.995.998.998 0 0 1-1.001.994.997.997 0 0 1-1.001-.994c0-.55.448-.995 1-.995zm6.005 0a.998.998 0 0 1 1.001.995.997.997 0 0 1-1 .994.997.997 0 0 1-1.001-.994c0-.55.448-.995 1-.995zm-3.002 2.984c.553 0 1 .445 1 .994 0 .55-.447.995-1 .995-.553 0-1-.445-1-.995a.997.997 0 0 1 1-.994zm6.005 0c.553 0 1 .445 1 .994 0 .55-.447.995-1 .995-.553 0-1-.445-1-.995a.997.997 0 0 1 1-.994zm3.002 2.984a.997.997 0 0 1 1.001.994c0 .55-.448.995-1 .995a.998.998 0 0 1-1.001-.995c0-.55.448-.994 1-.994zm6.005 0a.997.997 0 0 1 1.001.994c0 .55-.448.995-1 .995a.998.998 0 0 1-1.002-.995c0-.55.448-.994 1.001-.994zm3.003-2.984c.552 0 1 .445 1 .994 0 .55-.448.995-1 .995a.998.998 0 0 1-1.001-.995.997.997 0 0 1 1-.994zm-6.005 5.967c.553 0 1 .445 1 .995a.997.997 0 0 1-1 .994.997.997 0 0 1-1.001-.994c0-.55.448-.995 1-.995zm9.007-8.951c.553 0 1 .445 1 .995a.997.997 0 0 1-1 .994c-.553 0-1-.445-1-.994 0-.55.447-.995 1-.995zm6.005 0c.553 0 1 .445 1 .995a.997.997 0 0 1-1 .994.997.997 0 0 1-1.001-.994c0-.55.448-.995 1-.995zm-3.002 2.984c.552 0 1 .445 1 .994 0 .55-.448.995-1 .995a.998.998 0 0 1-1.001-.995.997.997 0 0 1 1-.994z" fill="#383838"/><path d="M45.596 31.796l9.401-5.338-9.663-5.453 9.663-5.487L27.5 0 0 15.518l9.664 5.487L0 26.458l9.664 5.487L0 37.398l27.5 15.613 27.498-15.613-9.663-5.453.07-.04c.07-.027.129-.069.19-.11zM27.499 2.286l23.455 13.237-7.643 4.34L27.5 28.84 4.043 15.523 27.5 2.286zM11.138 22.46a.995.995 0 0 0 .893.564c.27 0 .512-.108.692-.281l2.264 1.284a.992.992 0 0 0-.955.986c0 .55.449.994 1.001.994.553 0 1-.445 1-.994a.964.964 0 0 0-.131-.466l10.338 5.87a.964.964 0 0 0-.198.563c0 .55.448.995 1 .995a1 1 0 0 0 1.002-.995c0-.05-.022-.093-.03-.142l10.06-5.712c.06.494.466.88.979.88.552 0 1-.445 1-.994a.972.972 0 0 0-.406-.779l2.204-1.25c.068.014.132.04.204.04a.99.99 0 0 0 .939-.69l.32-.182 7.64 4.311-1.984 1.127a1 1 0 0 0-1.91.407.97.97 0 0 0 .199.565l-3.948 2.241-6.393 3.63a.964.964 0 0 0 .134-.47c0-.548-.449-.994-1.001-.994s-1 .446-1 .995c0 .534.426.962.957.986l-2.265 1.286a1 1 0 0 0-1.695.712c0 .08.028.15.046.224L27.5 39.78l-5.521-3.135a.99.99 0 0 0-.94-.692c-.073 0-.138.027-.206.042l-2.203-1.25a.975.975 0 0 0 .407-.78.998.998 0 0 0-1-.995.988.988 0 0 0-.978.883L6.996 28.14c.008-.049.03-.093.03-.143a.998.998 0 0 0-1.001-.995c-.24 0-.45.095-.622.234l-1.36-.772 7.095-4.004zm39.815 14.943L27.498 50.72 4.044 37.403l7.64-4.311 15.815 8.979 15.815-8.98 7.64 4.312z" fill="#383838"/></svg>