<?xml version="1.0" encoding="utf-8"?>
<!-- Generator: Adobe Illustrator 17.0.0, SVG Export Plug-In . SVG Version: 6.00 Build 0)  -->
<!DOCTYPE svg PUBLIC "-//W3C//DTD SVG 1.1//EN" "http://www.w3.org/Graphics/SVG/1.1/DTD/svg11.dtd" [
	<!ENTITY st0 "fill:#49C4D7;">
	<!ENTITY st1 "fill:#868B8C;">
	<!ENTITY st2 "fill:#B5B6B6;">
	<!ENTITY st3 "fill:#F26241;">
	<!ENTITY st4 "clip-path:url(#SVGID_2_);fill:#49C4D7;">
	<!ENTITY st5 "clip-path:url(#SVGID_2_);fill:#F26241;">
	<!ENTITY st6 "clip-path:url(#SVGID_2_);fill:#868B8C;">
]>
<svg version="1.1" id="Слой_1" xmlns="http://www.w3.org/2000/svg" xmlns:xlink="http://www.w3.org/1999/xlink" x="0px" y="0px"
	 width="157.092px" height="82.3784px" viewBox="0 0 157.092 82.3784" style="enable-background:new 0 0 157.092 82.3784;"
	 xml:space="preserve">
<polygon style="&st0;" points="24.8526,82.3784 35.9756,82.3784 35.9756,10.2544 24.8526,6.9524 "/>
<polygon style="&st1;" points="11.8179,82.3784 21.2029,82.3784 21.2029,17.0324 11.8179,14.5984 "/>
<polygon style="&st2;" points="0,82.3784 7.647,82.3784 7.647,23.4624 0,21.3764 "/>
<polygon style="&st3;" points="40.4937,-0.0004 40.4937,82.3786 95.4127,82.3786 95.4127,67.5026 88.6347,67.5026 88.6347,72.4726 
	51.7907,70.2136 51.7907,16.8586 88.6347,27.4596 88.6347,31.1926 95.4127,31.1926 95.4127,18.7696 "/>
<polygon style="&st0;" points="63.2394,32.7296 72.08739,32.7296 72.08739,43.8546 69.84139,43.8546 69.84139,34.5966 
	65.4854,34.5966 65.4854,43.8546 63.2394,43.8546 "/>
<g>
	<defs>
		<rect id="SVGID_1_" y="0.0004" width="157.092" height="82.378"/>
	</defs>
	<clipPath id="SVGID_2_">
		<use xlink:href="#SVGID_1_"  style="overflow:visible;"/>
	</clipPath>
	<path style="&st4;" d="M76.3416,32.7296h7.793v11.125h-2.246v-9.243h-3.346v4.75c0,1.361-0.046,2.311-0.137,2.85
		c-0.091,0.539-0.312,0.959-0.664,1.26c-0.352,0.301-0.902,0.451-1.64999,0.451c-0.263,0-0.742-0.025-1.43501-0.076v-1.738
		l0.501,0.008c0.471,0,0.787-0.063,0.94901-0.19c0.16199-0.126,0.243-0.437,0.243-0.933l-0.008-1.912V32.7296z"/>
	<path style="&st4;" d="M97.64729,43.8541h-2.444l-0.971-2.527h-4.447l-0.918,2.527h-2.383l4.333-11.124h2.375L97.64729,43.8541z
		 M93.5113,39.4531l-1.533-4.128l-1.502,4.128H93.5113z"/>
	<path style="&st4;" d="M106.7356,39.7642l2.17799,0.691c-0.334,1.214-0.889,2.115-1.666,2.705
		c-0.776,0.589-1.76199,0.884-2.95599,0.884c-1.47701,0-2.691-0.505-3.64201-1.514c-0.951-1.009-1.42699-2.389-1.42699-4.14
		c0-1.851,0.478-3.289,1.435-4.314c0.956-1.024,2.213-1.536,3.771-1.536c1.361,0,2.466,0.402,3.316,1.206
		c0.506,0.476,0.886,1.159,1.139,2.049l-2.224,0.531c-0.131-0.576-0.406-1.032-0.823-1.366c-0.418-0.333-0.925-0.5-1.522-0.5
		c-0.824,0-1.493,0.296-2.007,0.887c-0.513,0.592-0.77,1.551-0.77,2.877c0,1.406,0.253,2.408,0.759,3.005
		c0.506,0.597,1.163,0.895,1.973,0.895c0.597,0,1.11-0.19,1.54-0.569C106.2396,41.17521,106.5486,40.57821,106.7356,39.7642"/>
	<polygon style="&st4;" points="114.1237,43.8544 114.1237,34.6114 110.8227,34.6114 110.8227,32.7294 119.6637,32.7294 
		119.6637,34.6114 116.3697,34.6114 116.3697,43.8544 	"/>
	<polygon style="&st4;" points="122.3085,32.7296 124.4105,32.7296 124.4105,40.1356 128.91849,32.7296 131.15649,32.7296 
		131.15649,43.8546 129.05449,43.8546 129.05449,36.59261 124.5545,43.8546 122.3085,43.8546 	"/>
	<path style="&st4;" d="M134.6519,32.7296h2.24599v4.735c0.50101-0.05,0.84001-0.179,1.017-0.387
		c0.177-0.207,0.45001-0.784,0.82001-1.73c0.465-1.204,0.933-1.953,1.40401-2.246c0.465-0.294,1.21599-0.44,2.25299-0.44
		c0.05099,0,0.16-0.003,0.327-0.008v1.662l-0.319-0.008c-0.45999,0-0.797,0.057-1.00899,0.171
		c-0.21301,0.114-0.38501,0.287-0.51601,0.52c-0.132,0.233-0.327,0.711-0.58501,1.434c-0.13599,0.385-0.284,0.706-0.444,0.964
		c-0.159,0.258-0.44099,0.501-0.84599,0.728c0.50101,0.142,0.91499,0.428,1.241,0.858s0.68401,1.037,1.07401,1.821l1.517,3.051
		h-2.64l-1.328-2.876c-0.021-0.041-0.064-0.119-0.129-0.236c-0.026-0.04-0.119-0.215-0.28101-0.523
		c-0.289-0.547-0.52499-0.888-0.70999-1.025c-0.18401-0.136-0.466-0.207-0.84601-0.212v4.872h-2.24599V32.7296z"/>
	<path style="&st5;" d="M73.24129,65.4118h-2.444l-0.971-2.527h-4.447l-0.918,2.527h-2.383l4.333-11.124h2.375L73.24129,65.4118z
		 M69.1053,61.0108l-1.533-4.128l-1.502,4.128H69.1053z"/>
	<path style="&st5;" d="M75.419,54.2874h7.793v11.125h-2.246v-9.243H77.62v4.75c0,1.361-0.046,2.311-0.137,2.85
		c-0.091,0.539-0.312,0.959-0.664,1.26c-0.352,0.301-0.902,0.451-1.64999,0.451c-0.263,0-0.742-0.025-1.43501-0.076v-1.738
		l0.501,0.008c0.471,0,0.787-0.063,0.94901-0.19c0.16199-0.126,0.243-0.437,0.243-0.933l-0.008-1.912V54.2874z"/>
	<path style="&st5;" d="M85.535,54.287h2.246v4.645h1.806c0.131-1.371,0.614-2.52,1.449-3.446c0.835-0.925,2.049-1.388,3.643-1.388
		c1.533,0,2.75201,0.496,3.65701,1.487c0.906,0.992,1.359,2.408,1.359,4.25c0,1.204-0.19801,2.232-0.592,3.084
		c-0.395,0.853-0.953,1.513-1.673,1.981c-0.721,0.468-1.618,0.702-2.691,0.702c-1.092,0-1.961-0.172-2.606-0.516
		c-0.645-0.344-1.209-0.901-1.693-1.67c-0.483-0.769-0.767-1.641-0.853-2.618h-1.806v4.614h-2.246V54.287z M91.833,59.86501
		c0,1.234,0.245,2.187,0.73599,2.857c0.491,0.67,1.18101,1.006,2.07201,1.006c0.915,0,1.602-0.333,2.06-0.998
		c0.458-0.666,0.687-1.663,0.687-2.994c0-1.275-0.265-2.208-0.793-2.8c-0.529-0.592-1.20599-0.888-2.03-0.888
		c-0.805,0-1.461,0.3-1.969,0.899C92.087,57.547,91.833,58.519,91.833,59.86501"/>
	<polygon style="&st5;" points="101.5235,65.4122 101.5235,54.2872 104.8855,54.2872 106.9035,61.87621 108.8995,54.2872 
		112.26849,54.2872 112.26849,65.4122 110.1825,65.4122 110.1825,56.6552 107.9735,65.4122 105.81149,65.4122 103.6105,56.6552 
		103.6105,65.4122 	"/>
	<polygon style="&st5;" points="114.5303,54.2874 116.63229,54.2874 116.63229,61.69341 121.14029,54.2874 123.3783,54.2874 
		123.3783,65.4124 121.27629,65.4124 121.27629,58.15041 116.77629,65.4124 114.5303,65.4124 	"/>
	<polygon style="&st5;" points="125.6778,65.4122 125.6778,54.2872 127.9238,54.2872 127.9238,58.66621 132.32579,58.66621 
		132.32579,54.2872 134.57179,54.2872 134.57179,65.4122 132.32579,65.4122 132.32579,60.5482 127.9238,60.5482 127.9238,65.4122 	
		"/>
	<polygon style="&st5;" points="136.924,54.2874 139.02599,54.2874 139.02599,61.69341 143.53398,54.2874 145.77199,54.2874 
		145.77199,65.4124 143.66998,65.4124 143.66998,58.15041 139.16998,65.4124 136.924,65.4124 	"/>
	<polygon style="&st5;" points="148.0943,54.2874 150.19629,54.2874 150.19629,61.69341 154.70428,54.2874 156.94229,54.2874 
		156.94229,65.4124 154.84029,65.4124 154.84029,58.15041 150.34029,65.4124 148.0943,65.4124 	"/>
	<path style="&st6;" d="M63.5515,49.1752c0-0.515,0.144-0.897,0.431-1.145c0.24-0.206,0.532-0.309,0.878-0.309
		c0.383,0,0.697,0.125,0.93999,0.376c0.244,0.25,0.366,0.597,0.366,1.038c0,0.359-0.054,0.64-0.162,0.845
		c-0.108,0.206-0.265,0.365-0.471,0.478c-0.205,0.114-0.43,0.17-0.673,0.17c-0.391,0-0.707-0.124-0.948-0.374
		C63.6715,50.0042,63.5515,49.6442,63.5515,49.1752 M64.0375,49.1752c0,0.356,0.078,0.623,0.23399,0.8
		c0.15601,0.177,0.35201,0.266,0.589,0.266c0.234,0,0.43-0.089,0.585-0.267c0.156-0.179,0.234-0.45,0.234-0.815
		c0-0.344-0.078-0.604-0.235-0.782c-0.157-0.177-0.35201-0.266-0.584-0.266c-0.237,0-0.433,0.088-0.589,0.265
		C64.11549,48.5522,64.0375,48.8182,64.0375,49.1752"/>
	<path style="&st6;" d="M69.9464,47.784h0.473v1.202c0.15099,0,0.256-0.028,0.31599-0.086c0.061-0.057,0.149-0.226,0.26701-0.503
		c0.09299-0.22,0.168-0.365,0.226-0.435s0.124-0.117,0.2-0.141c0.075-0.025,0.196-0.037,0.363-0.037h0.094v0.39l-0.132-0.002
		c-0.124,0-0.203,0.018-0.23901,0.055c-0.036,0.038-0.09299,0.153-0.168,0.343c-0.071,0.182-0.137,0.307-0.197,0.377
		c-0.059,0.07-0.151,0.133-0.276,0.192c0.204,0.053,0.404,0.242,0.6,0.565l0.51701,0.862h-0.52l-0.505-0.862
		c-0.103-0.173-0.193-0.287-0.27-0.342c-0.077-0.055-0.169-0.082-0.27599-0.082v1.286h-0.473V47.784z"/>
	<path style="&st6;" d="M75.4161,49.1752c0-0.515,0.144-0.897,0.431-1.145c0.24-0.206,0.532-0.309,0.878-0.309
		c0.383,0,0.697,0.125,0.93999,0.376c0.244,0.25,0.366,0.597,0.366,1.038c0,0.359-0.054,0.64-0.162,0.845
		c-0.108,0.206-0.265,0.365-0.471,0.478c-0.205,0.114-0.43,0.17-0.673,0.17c-0.391,0-0.707-0.124-0.948-0.374
		C75.53609,50.0042,75.4161,49.6442,75.4161,49.1752 M75.9021,49.1752c0,0.356,0.078,0.623,0.23399,0.8
		c0.15601,0.177,0.35201,0.266,0.589,0.266c0.234,0,0.43-0.089,0.585-0.267c0.156-0.179,0.234-0.45,0.234-0.815
		c0-0.344-0.078-0.604-0.235-0.782c-0.157-0.177-0.35201-0.266-0.584-0.266c-0.237,0-0.433,0.088-0.589,0.265
		C75.98009,48.5522,75.9021,48.8182,75.9021,49.1752"/>
	<polygon style="&st6;" points="81.8161,47.784 82.2891,47.784 82.2891,48.94201 83.6001,48.94201 83.6001,47.784 84.0731,47.784 
		84.0731,50.56601 83.6001,50.56601 83.6001,49.332 82.2891,49.332 82.2891,50.56601 81.8161,50.56601 	"/>
	<polygon style="&st6;" points="88.0166,47.784 88.4896,47.784 88.4896,48.94201 89.8006,48.94201 89.8006,47.784 90.2736,47.784 
		90.2736,50.56601 89.8006,50.56601 89.8006,49.332 88.4896,49.332 88.4896,50.56601 88.0166,50.56601 	"/>
	<path style="&st6;" d="M96.0349,50.2226c-0.175,0.149-0.34299,0.253-0.505,0.314c-0.163,0.062-0.336,0.092-0.522,0.092
		c-0.306,0-0.542-0.075-0.707-0.224c-0.16399-0.149-0.24699-0.34-0.24699-0.572c0-0.136,0.032-0.261,0.09399-0.373
		c0.062-0.113,0.14301-0.203,0.244-0.272c0.101-0.067,0.214-0.119,0.34-0.154c0.093-0.025,0.233-0.048,0.42001-0.071
		c0.382-0.045,0.664-0.099,0.844-0.162c0.002-0.065,0.003-0.106,0.003-0.123c0-0.192-0.04501-0.328-0.135-0.406
		c-0.12-0.107-0.3-0.16-0.538-0.16c-0.222,0-0.387,0.039-0.493,0.116c-0.106,0.078-0.184,0.216-0.235,0.413l-0.462-0.063
		c0.042-0.197,0.111-0.357,0.208-0.478c0.09599-0.121,0.23499-0.214,0.417-0.28c0.182-0.066,0.393-0.098,0.634-0.098
		c0.237,0,0.431,0.028,0.58,0.083c0.149,0.057,0.258,0.127,0.328,0.212c0.071,0.084,0.119,0.191,0.14799,0.32
		c0.015,0.08,0.023,0.225,0.023,0.435v0.629c0,0.438,0.01,0.715,0.03,0.831c0.021,0.117,0.061,0.228,0.12,0.334h-0.494
		C96.0809,50.4676,96.0489,50.3536,96.0349,50.2226 M95.9959,49.1696c-0.17101,0.07-0.429,0.13-0.773,0.178
		c-0.194,0.028-0.332,0.06-0.412,0.095c-0.08,0.034-0.143,0.086-0.187,0.153c-0.043,0.067-0.065,0.142-0.065,0.224
		c0,0.125,0.048,0.23,0.143,0.314c0.096,0.084,0.235,0.126,0.41901,0.126c0.182,0,0.34399-0.04,0.48599-0.119
		c0.14201-0.08,0.246-0.189,0.313-0.327c0.051-0.106,0.076-0.263,0.076-0.471V49.1696z"/>
	<path style="&st6;" d="M102.6329,47.7842v2.782h-0.46999v-1.085h-0.273c-0.167,0-0.29,0.022-0.372,0.065
		c-0.082,0.042-0.2,0.18-0.356,0.412l-0.41299,0.608h-0.586l0.50999-0.75c0.156-0.228,0.311-0.358,0.465-0.387
		c-0.269-0.037-0.47-0.134-0.6-0.291c-0.13-0.157-0.19601-0.338-0.19601-0.542c0-0.241,0.08501-0.437,0.256-0.587
		c0.171-0.15,0.419-0.225,0.742-0.225H102.6329z M102.1629,48.1742h-0.673c-0.282,0-0.463,0.044-0.545,0.131
		c-0.082,0.088-0.122,0.19-0.122,0.307c0,0.165,0.06,0.287,0.18,0.365s0.332,0.116,0.637,0.116h0.523V48.1742z"/>
	<path style="&st6;" d="M111.3001,47.784h0.473v1.202c0.15099,0,0.256-0.028,0.31599-0.086c0.061-0.057,0.149-0.226,0.26701-0.503
		c0.09299-0.22,0.168-0.365,0.226-0.435s0.124-0.117,0.2-0.141c0.075-0.025,0.196-0.037,0.363-0.037h0.094v0.39l-0.132-0.002
		c-0.124,0-0.203,0.018-0.23901,0.055c-0.036,0.038-0.09299,0.153-0.168,0.343c-0.071,0.182-0.137,0.307-0.197,0.377
		c-0.059,0.07-0.151,0.133-0.276,0.192c0.204,0.053,0.404,0.242,0.6,0.565l0.51701,0.862h-0.52l-0.505-0.862
		c-0.103-0.173-0.193-0.287-0.27-0.342c-0.077-0.055-0.169-0.082-0.27599-0.082v1.286h-0.473V47.784z"/>
	<path style="&st6;" d="M116.7698,49.1752c0-0.515,0.144-0.897,0.431-1.145c0.24-0.206,0.532-0.309,0.878-0.309
		c0.383,0,0.697,0.125,0.93999,0.376c0.244,0.25,0.366,0.597,0.366,1.038c0,0.359-0.054,0.64-0.162,0.845
		c-0.108,0.206-0.265,0.365-0.471,0.478c-0.205,0.114-0.43,0.17-0.673,0.17c-0.391,0-0.707-0.124-0.948-0.374
		C116.88979,50.0042,116.7698,49.6442,116.7698,49.1752 M117.2558,49.1752c0,0.356,0.078,0.623,0.23399,0.8
		c0.15601,0.177,0.35201,0.266,0.589,0.266c0.234,0,0.43-0.089,0.585-0.267c0.156-0.179,0.234-0.45,0.234-0.815
		c0-0.344-0.078-0.604-0.235-0.782c-0.157-0.177-0.35201-0.266-0.584-0.266c-0.237,0-0.433,0.088-0.589,0.265
		C117.33379,48.5522,117.2558,48.8182,117.2558,49.1752"/>
	<polygon style="&st6;" points="123.1806,47.784 123.9156,47.784 124.6486,50.01101 125.4636,47.784 126.1446,47.784 
		126.1446,50.56601 125.6716,50.56601 125.6716,48.32701 124.8466,50.56601 124.4236,50.56601 123.6426,48.21901 123.6426,50.56601 
		123.1806,50.56601 	"/>
	<polygon style="&st6;" points="130.0981,47.784 132.30009,47.784 132.30009,50.56601 131.82709,50.56601 131.82709,48.17401 
		130.57109,48.17401 130.57109,50.56601 130.0981,50.56601 	"/>
	<path style="&st6;" d="M138.05888,50.2226c-0.17499,0.149-0.34299,0.253-0.50499,0.314c-0.16301,0.062-0.336,0.092-0.522,0.092
		c-0.306,0-0.54201-0.075-0.707-0.224c-0.164-0.149-0.24699-0.34-0.24699-0.572c0-0.136,0.032-0.261,0.09399-0.373
		c0.062-0.113,0.14301-0.203,0.244-0.272c0.101-0.067,0.21399-0.119,0.34-0.154c0.093-0.025,0.233-0.048,0.42-0.071
		c0.382-0.045,0.664-0.099,0.84401-0.162c0.002-0.065,0.00299-0.106,0.00299-0.123c0-0.192-0.045-0.328-0.13499-0.406
		c-0.12001-0.107-0.3-0.16-0.53801-0.16c-0.222,0-0.38699,0.039-0.493,0.116c-0.106,0.078-0.18399,0.216-0.235,0.413l-0.46199-0.063
		c0.04199-0.197,0.11099-0.357,0.20799-0.478c0.09599-0.121,0.235-0.214,0.41701-0.28c0.18199-0.066,0.39299-0.098,0.63399-0.098
		c0.237,0,0.431,0.028,0.58,0.083c0.149,0.057,0.25801,0.127,0.328,0.212c0.071,0.084,0.119,0.191,0.14799,0.32
		c0.015,0.08,0.02301,0.225,0.02301,0.435v0.629c0,0.438,0.00999,0.715,0.03,0.831c0.021,0.117,0.06099,0.228,0.12,0.334h-0.494
		C138.10489,50.4676,138.07289,50.3536,138.05888,50.2226 M138.0199,49.1696c-0.17101,0.07-0.429,0.13-0.77301,0.178
		c-0.194,0.028-0.332,0.06-0.412,0.095c-0.08,0.034-0.14299,0.086-0.187,0.153c-0.043,0.067-0.065,0.142-0.065,0.224
		c0,0.125,0.048,0.23,0.14301,0.314c0.09599,0.084,0.235,0.126,0.41901,0.126c0.18199,0,0.34399-0.04,0.48599-0.119
		c0.142-0.08,0.246-0.189,0.313-0.327c0.05099-0.106,0.076-0.263,0.076-0.471V49.1696z"/>
	<polygon style="&st6;" points="142.4624,47.784 142.93539,47.784 142.93539,48.94201 144.2464,48.94201 144.2464,47.784 
		144.71939,47.784 144.71939,50.56601 144.2464,50.56601 144.2464,49.332 142.93539,49.332 142.93539,50.56601 142.4624,50.56601 	
		"/>
	<polygon style="&st6;" points="148.66029,47.784 149.13329,47.784 149.13329,49.90601 150.44429,47.784 150.95428,47.784 
		150.95428,50.56601 150.48129,50.56601 150.48129,48.457 149.17029,50.56601 148.66029,50.56601 	"/>
	<path style="&st6;" d="M157.09129,47.7842v2.782h-0.46999v-1.085h-0.27301c-0.16699,0-0.28999,0.022-0.37199,0.065
		c-0.082,0.042-0.2,0.18-0.356,0.412l-0.41299,0.608h-0.586l0.50999-0.75c0.15599-0.228,0.311-0.358,0.465-0.387
		c-0.269-0.037-0.47-0.134-0.59999-0.291c-0.13-0.157-0.19601-0.338-0.19601-0.542c0-0.241,0.08501-0.437,0.25601-0.587
		c0.17099-0.15,0.41899-0.225,0.74199-0.225H157.09129z M156.62131,48.1742h-0.673c-0.282,0-0.463,0.044-0.545,0.131
		c-0.082,0.088-0.12201,0.19-0.12201,0.307c0,0.165,0.06,0.287,0.18001,0.365c0.12,0.078,0.332,0.116,0.63699,0.116h0.52301V48.1742
		z"/>
	<path style="&st4;" d="M155.21069,41.1372c0.16199-0.212,0.314-0.476,0.455-0.793c0.142-0.316,0.30899-0.815,0.50099-1.498
		l-1.927-0.44c-0.132,0.521-0.289,0.943-0.47099,1.267l-1.31-1.728h-4.298c-0.34,0.259-0.62601,0.536-0.85001,0.836
		c-0.425,0.569-0.63699,1.211-0.63699,1.924c0,0.784,0.271,1.477,0.812,2.079c0.698,0.779,1.74001,1.169,3.12601,1.169
		c0.698,0,1.29999-0.096,1.806-0.289c0.506-0.192,0.98399-0.49,1.435-0.895c0.58099,0.541,1.188,0.966,1.821,1.275l1.28999-1.647
		c-0.177-0.086-0.45399-0.262-0.83099-0.527C155.75569,41.6042,155.44868,41.3602,155.21069,41.1372 M151.4847,41.9952
		c-0.30901,0.132-0.63,0.197-0.964,0.197c-0.506,0-0.909-0.145-1.21001-0.436c-0.30099-0.291-0.452-0.667-0.452-1.127
		c0-0.364,0.12199-0.721,0.36501-1.07c0.24199-0.349,0.60899-0.647,1.09999-0.895l2.17,2.678
		C152.12968,41.6462,151.79369,41.8632,151.4847,41.9952"/>
	<path style="&st5;" d="M149.2821,37.298c-0.40001,0.199-0.74901,0.415-1.054,0.647h4.297l-0.23801-0.313
		c0.815-0.511,1.356-0.969,1.62401-1.374c0.26799-0.404,0.40199-0.832,0.40199-1.282c0-0.708-0.27-1.308-0.812-1.799
		c-0.541-0.49-1.29201-0.736-2.25301-0.736c-0.99699,0-1.765,0.234-2.30299,0.702c-0.539,0.468-0.80901,1.039-0.80901,1.711
		c0,0.365,0.097,0.75,0.289,1.158C148.6171,36.419,148.90309,36.848,149.2821,37.298 M150.5041,34.198
		c0.19199-0.169,0.45799-0.254,0.797-0.254c0.349,0,0.62599,0.096,0.83099,0.288c0.205,0.192,0.30701,0.425,0.30701,0.698
		c0,0.324-0.21201,0.65-0.63701,0.979l-0.577,0.44l-0.524-0.607c-0.323-0.374-0.485-0.693-0.485-0.956
		C150.21609,34.564,150.3121,34.367,150.5041,34.198"/>
</g>
</svg>
