<svg xmlns="http://www.w3.org/2000/svg" width="13.315" height="12.998"><path d="M13.315 5.037c0-.202-.15-.327-.449-.377L8.85 4.062 7.05.337C6.947.11 6.816 0 6.656 0s-.29.112-.392.336l-1.8 3.727-4.017.597C.149 4.71 0 4.835 0 5.037c0 .115.067.246.2.393l2.913 2.9-.688 4.095a1.34 1.34 0 0 0-.016.164c0 .114.028.211.084.29s.14.12.252.12a.668.668 0 0 0 .32-.099l3.592-1.933L10.25 12.9a.637.637 0 0 0 .32.099.28.28 0 0 0 .244-.12.49.49 0 0 0 .084-.29 1.26 1.26 0 0 0-.008-.164l-.688-4.095 2.904-2.9c.14-.141.209-.272.209-.393z" fill="#f6cc02"/></svg>