<svg xmlns="http://www.w3.org/2000/svg" width="49" height="59"><path d="M21.863 41.89a.924.924 0 0 0-.92.927v3.134c0 .512.412.927.92.927s.92-.415.92-.927v-3.134a.924.924 0 0 0-.92-.927zm5.128 4.04a.924.924 0 0 0-.92.928v5.195c0 .512.412.928.92.928s.92-.416.92-.928v-5.195a.924.924 0 0 0-.92-.928z" fill="#010202"/><path d="M48.99 57.205c-.435-4.143-3.882-7.267-8.017-7.267h-2.867a10.308 10.308 0 0 0-5.781-2.404v-7.74h2.158c6.881 0 12.48-5.647 12.48-12.59a12.6 12.6 0 0 0-.892-4.682 12.3 12.3 0 0 0 1.753-6.348c0-6.767-5.458-12.272-12.166-12.272-.66 0-1.32.054-1.97.16C31.377 1.475 28.112 0 24.643 0S17.909 1.474 15.6 4.063a12.157 12.157 0 0 0-1.972-.16c-6.708 0-12.166 5.504-12.166 12.271 0 2.252.605 4.436 1.753 6.348a12.594 12.594 0 0 0-.892 4.683c0 6.942 5.599 12.59 12.48 12.59.732 0 1.452-.064 2.159-.188v10.87a8.768 8.768 0 0 0-4.708-1.363 8.893 8.893 0 0 0-6.852 3.26 5.651 5.651 0 0 0-5.38 4.729c-.08.474.05.957.356 1.324.304.364.75.573 1.222.573h45.797c.453 0 .886-.195 1.189-.534a1.64 1.64 0 0 0 .404-1.261zM14.806 37.939c-5.868 0-10.642-4.815-10.642-10.734 0-1.529.312-3.005.927-4.388a.934.934 0 0 0-.073-.893 10.435 10.435 0 0 1-1.714-5.75c0-5.743 4.632-10.416 10.326-10.416.718 0 1.436.075 2.134.223a.916.916 0 0 0 .9-.32 10.268 10.268 0 0 1 15.962.001c.217.266.564.39.9.318a10.318 10.318 0 0 1 2.133-.222c5.694 0 10.327 4.673 10.327 10.416 0 2.056-.593 4.044-1.715 5.75a.934.934 0 0 0-.073.893 10.73 10.73 0 0 1 .927 4.388c0 5.919-4.774 10.734-10.641 10.734-1.654 0-3.24-.373-4.713-1.108a.913.913 0 0 0-.665-.06 15.845 15.845 0 0 1-4.461.64c-1.516 0-3.017-.215-4.462-.64a.914.914 0 0 0-.665.06 10.461 10.461 0 0 1-4.712 1.108zM1.892 57.145A3.807 3.807 0 0 1 5.8 54.232a.916.916 0 0 0 .789-.375 7.055 7.055 0 0 1 5.667-2.888c1.848 0 3.595.719 4.919 2.023.22.218.534.309.836.244a4.893 4.893 0 0 1 1.038-.112c2.391 0 4.388 1.734 4.82 4.02H1.891zm28.593 0H25.73c-.45-3.315-3.273-5.877-6.68-5.877-.083 0-.165.002-.247.005V39.135c.408-.14.811-.301 1.207-.485 1.507.409 3.064.616 4.635.616 1.57 0 3.127-.207 4.634-.616.396.184.799.345 1.207.485v18.01zm1.84 0v-7.747a8.54 8.54 0 0 1 5.315 2.633.913.913 0 0 0 1.007.217 6.144 6.144 0 0 1 2.326-.455c3.106 0 5.71 2.283 6.157 5.352H32.325z" fill="#010202"/></svg>